<svg version="1.1" id="Layer_1" xmlns="http://www.w3.org/2000/svg" xmlns:xlink="http://www.w3.org/1999/xlink" x="0px" y="0px"
	 width="100%" viewBox="0 0 1024 1024" enable-background="new 0 0 1024 1024" xml:space="preserve">
<path fill="#F48320" opacity="1.000000" stroke="none" 
	d="
M1.000000,808.000000 
	C1.000000,541.977356 1.000000,275.954712 1.267370,9.191578 
	C5.780173,7.202375 10.069000,6.081650 14.256378,4.661746 
	C17.241562,3.649497 20.090347,2.234995 23.000000,1.000000 
	C23.444445,1.000000 23.888887,1.000000 24.849617,1.078521 
	C25.910603,1.104694 26.455301,1.052347 27.000000,1.000000 
	C87.689308,1.000000 148.378616,1.000000 209.452972,1.338681 
	C208.822403,3.388152 207.884964,5.151262 206.779633,6.801964 
	C186.321564,37.354450 165.834381,67.887444 145.371857,98.436951 
	C119.168259,137.557556 92.957733,176.673584 66.809624,215.831253 
	C62.387630,222.453323 58.264912,229.275223 54.157597,236.300262 
	C55.425724,237.828842 56.488300,239.113831 57.662003,240.287735 
	C151.383713,334.025421 245.111572,427.756897 338.868927,521.458923 
	C340.241394,522.830688 341.989777,523.826294 343.773865,525.327698 
	C367.573456,532.586487 391.151550,539.550476 414.752899,546.434753 
	C445.652008,555.447815 476.572906,564.386108 507.478119,573.378296 
	C542.048279,583.436646 576.609009,593.527283 611.178040,603.589294 
	C640.797058,612.210327 670.421997,620.810913 700.218628,629.724243 
	C700.906067,631.422791 701.619324,632.778320 701.901978,634.218445 
	C705.846802,654.315796 709.709595,674.429138 713.638123,694.529724 
	C720.857300,731.467102 728.083923,768.403015 735.348572,805.331543 
	C747.434814,866.770325 759.584473,928.196655 771.631226,989.643250 
	C773.934875,1001.393372 775.886169,1013.212646 778.000000,1025.000000 
	C727.977356,1025.000000 677.954773,1025.000000 627.387085,1024.666016 
	C625.752686,1023.124878 624.816589,1021.719421 623.550476,1020.740845 
	C608.668091,1009.237427 593.729553,997.806641 578.818787,986.339966 
	C531.184998,949.709045 483.555359,913.072693 435.926666,876.435181 
	C413.893219,859.486328 391.902679,842.481384 369.808716,825.611816 
	C364.418152,821.495850 358.697083,817.812744 352.766602,813.710571 
	C343.787598,813.010803 335.174957,812.260498 326.551392,812.102051 
	C300.757050,811.628357 274.958527,811.383728 249.161545,811.054443 
	C222.698441,810.716614 196.235214,810.388062 169.772125,810.048645 
	C144.308243,809.721985 118.844696,809.367554 93.380585,809.059814 
	C62.587288,808.687622 31.793549,808.351685 1.000000,808.000000 
z"/>
<path fill="#F6851F" opacity="1.000000" stroke="none" 
	d="
M752.000000,1.000000 
	C842.974854,1.000000 933.949707,1.000000 1024.962280,1.000000 
	C1024.962280,342.213837 1024.962280,683.427673 1024.962280,1025.000000 
	C945.308777,1025.000000 865.617065,1025.000000 785.458740,1024.531372 
	C784.990112,849.986694 784.988464,675.910645 784.979797,501.834564 
	C784.979675,499.504059 785.011475,497.163635 784.822754,494.844574 
	C783.246826,475.478119 781.551636,456.121155 780.036194,436.750092 
	C778.870178,421.845490 778.010193,406.916931 776.837341,392.012939 
	C775.325928,372.808502 773.546753,353.625031 772.052185,334.419373 
	C770.583069,315.541229 769.356567,296.644196 767.908203,277.764313 
	C767.807983,276.458618 766.747803,275.226532 766.146729,273.575928 
	C766.420898,271.144806 766.682495,269.097992 766.956787,266.604858 
	C765.945435,246.917023 764.938538,227.674515 763.890930,208.434235 
	C763.249817,196.658966 762.548218,184.886963 761.870056,173.113724 
	C760.580688,150.730515 759.268799,128.348587 758.005188,105.963928 
	C757.256226,92.694771 756.628235,79.418716 755.863220,66.150528 
	C754.610840,44.431648 753.291260,22.716642 752.000000,1.000000 
z"/>
<path fill="#E27726" opacity="1.000000" stroke="none" 
	d="
M751.531372,1.000000 
	C753.291260,22.716642 754.610840,44.431648 755.863220,66.150528 
	C756.628235,79.418716 757.256226,92.694771 758.005188,105.963928 
	C759.268799,128.348587 760.580688,150.730515 761.870056,173.113724 
	C762.548218,184.886963 763.249817,196.658966 763.890930,208.434235 
	C764.938538,227.674515 765.945435,246.917023 766.545166,266.547791 
	C764.316467,266.637482 762.520996,266.154083 760.706543,266.067352 
	C745.597656,265.344910 730.485657,264.687775 715.373840,264.026215 
	C700.096191,263.357361 684.817932,262.701599 669.539612,262.047913 
	C638.133972,260.704163 606.727905,259.367889 575.322266,258.024017 
	C560.043884,257.370239 544.766846,256.686127 529.487671,256.051727 
	C504.727753,255.023712 479.968445,253.976791 455.205383,253.029724 
	C435.432220,252.273514 415.653076,251.674454 395.878113,250.964142 
	C387.737732,250.671753 379.599182,250.312683 371.463409,249.911209 
	C345.553497,248.632614 319.646881,247.286392 293.735779,246.033127 
	C278.794128,245.310425 263.847443,244.687790 248.900909,244.071274 
	C223.641602,243.029404 198.379318,242.058807 173.120865,240.997482 
	C159.505386,240.425385 145.897919,239.661255 132.282059,239.099960 
	C106.191154,238.024460 80.096832,237.031830 54.003925,236.004807 
	C58.264912,229.275223 62.387630,222.453323 66.809624,215.831253 
	C92.957733,176.673584 119.168259,137.557556 145.371857,98.436951 
	C165.834381,67.887444 186.321564,37.354450 206.779633,6.801964 
	C207.884964,5.151262 208.822403,3.388152 209.919006,1.338681 
	C390.354218,1.000000 570.708435,1.000000 751.531372,1.000000 
z"/>
<path fill="#CC6329" opacity="1.000000" stroke="none" 
	d="
M1.000000,808.468628 
	C31.793549,808.351685 62.587288,808.687622 93.380585,809.059814 
	C118.844696,809.367554 144.308243,809.721985 169.772125,810.048645 
	C196.235214,810.388062 222.698441,810.716614 249.161545,811.054443 
	C274.958527,811.383728 300.757050,811.628357 326.551392,812.102051 
	C335.174957,812.260498 343.787598,813.010803 352.718872,814.138000 
	C351.566711,826.657166 350.109009,838.529785 348.633484,850.400330 
	C345.764404,873.481506 342.891479,896.562256 340.008545,919.641724 
	C337.475555,939.919495 334.902679,960.192383 332.393066,980.473022 
	C330.557007,995.310608 328.795013,1010.157349 327.000000,1025.000000 
	C252.645767,1025.000000 178.291550,1025.000000 103.318298,1024.692627 
	C88.668358,1003.561279 74.614235,982.752808 60.612232,961.909302 
	C41.876354,934.018860 23.187817,906.096619 4.448768,878.208313 
	C3.441829,876.709717 2.156003,875.398438 0.999997,874.000000 
	C1.000000,852.312439 1.000000,830.624878 1.000000,808.468628 
z"/>
<path fill="#E27726" opacity="1.000000" stroke="none" 
	d="
M766.134033,273.960205 
	C766.747803,275.226532 767.807983,276.458618 767.908203,277.764313 
	C769.356567,296.644196 770.583069,315.541229 772.052185,334.419373 
	C773.546753,353.625031 775.325928,372.808502 776.837341,392.012939 
	C778.010193,406.916931 778.870178,421.845490 780.036194,436.750092 
	C781.551636,456.121155 783.246826,475.478119 784.822754,494.844574 
	C785.011475,497.163635 784.979675,499.504059 784.979797,501.834564 
	C784.988464,675.910645 784.990112,849.986694 784.996094,1024.531372 
	C782.958313,1025.000000 780.916687,1025.000000 778.437500,1025.000000 
	C775.886169,1013.212646 773.934875,1001.393372 771.631226,989.643250 
	C759.584473,928.196655 747.434814,866.770325 735.348572,805.331543 
	C728.083923,768.403015 720.857300,731.467102 713.638123,694.529724 
	C709.709595,674.429138 705.846802,654.315796 701.901978,634.218445 
	C701.619324,632.778320 700.906067,631.422791 700.257080,629.324097 
	C700.075928,628.086487 700.030762,627.552673 700.278809,626.794678 
	C701.248718,624.560364 702.183472,622.597717 702.563538,620.533020 
	C708.017029,590.910156 713.411865,561.276428 718.789368,531.639648 
	C732.574585,455.664886 746.322327,379.683350 760.146545,303.715729 
	C761.957581,293.763580 764.129333,283.877075 766.134033,273.960205 
z"/>
<path fill="#E27726" opacity="1.000000" stroke="none" 
	d="
M327.468658,1025.000000 
	C328.795013,1010.157349 330.557007,995.310608 332.393066,980.473022 
	C334.902679,960.192383 337.475555,939.919495 340.008545,919.641724 
	C342.891479,896.562256 345.764404,873.481506 348.633484,850.400330 
	C350.109009,838.529785 351.566711,826.657166 353.080261,814.358032 
	C358.697083,817.812744 364.418152,821.495850 369.808716,825.611816 
	C391.902679,842.481384 413.893219,859.486328 435.926666,876.435181 
	C483.555359,913.072693 531.184998,949.709045 578.818787,986.339966 
	C593.729553,997.806641 608.668091,1009.237427 623.550476,1020.740845 
	C624.816589,1021.719421 625.752686,1023.124878 626.921021,1024.666016 
	C527.312439,1025.000000 427.624878,1025.000000 327.468658,1025.000000 
z"/>
<path fill="#E27726" opacity="1.000000" stroke="none" 
	d="
M0.999997,874.468628 
	C2.156003,875.398438 3.441829,876.709717 4.448768,878.208313 
	C23.187817,906.096619 41.876354,934.018860 60.612232,961.909302 
	C74.614235,982.752808 88.668358,1003.561279 102.849640,1024.692627 
	C69.058884,1025.000000 35.117767,1025.000000 1.000000,1025.000000 
	C1.000000,974.979248 1.000000,924.958252 0.999997,874.468628 
z"/>
<path fill="#30353C" opacity="1.000000" stroke="none" 
	d="
M22.531218,1.000000 
	C20.090347,2.234995 17.241562,3.649497 14.256378,4.661746 
	C10.069000,6.081650 5.780173,7.202375 1.267370,8.725536 
	C1.000000,6.372888 1.000000,3.745775 1.000000,1.000000 
	C8.020491,1.000000 15.041463,1.000000 22.531218,1.000000 
z"/>
<path fill="#30353C" opacity="1.000000" stroke="none" 
	d="
M26.666668,1.000000 
	C26.455301,1.052347 25.910603,1.104694 25.182953,1.078521 
	C25.444445,1.000000 25.888889,1.000000 26.666668,1.000000 
z"/>
<path fill="#CC6329" opacity="1.000000" stroke="none" 
	d="
M766.146667,273.575928 
	C764.129333,283.877075 761.957581,293.763580 760.146545,303.715729 
	C746.322327,379.683350 732.574585,455.664886 718.789368,531.639648 
	C713.411865,561.276428 708.017029,590.910156 702.563538,620.533020 
	C702.183472,622.597717 701.248718,624.560364 700.013672,626.566406 
	C665.286377,554.975647 631.117249,483.388855 596.783142,411.456238 
	C594.540100,412.389313 592.866577,413.037079 591.232422,413.772278 
	C533.579102,439.709778 475.937836,465.674011 418.275574,491.591492 
	C393.393127,502.775391 368.468292,513.865051 343.562744,524.997437 
	C341.989777,523.826294 340.241394,522.830688 338.868927,521.458923 
	C245.111572,427.756897 151.383713,334.025421 57.662003,240.287735 
	C56.488300,239.113831 55.425724,237.828842 54.157597,236.300262 
	C80.096832,237.031830 106.191154,238.024460 132.282059,239.099960 
	C145.897919,239.661255 159.505386,240.425385 173.120865,240.997482 
	C198.379318,242.058807 223.641602,243.029404 248.900909,244.071274 
	C263.847443,244.687790 278.794128,245.310425 293.735779,246.033127 
	C319.646881,247.286392 345.553497,248.632614 371.463409,249.911209 
	C379.599182,250.312683 387.737732,250.671753 395.878113,250.964142 
	C415.653076,251.674454 435.432220,252.273514 455.205383,253.029724 
	C479.968445,253.976791 504.727753,255.023712 529.487671,256.051727 
	C544.766846,256.686127 560.043884,257.370239 575.322266,258.024017 
	C606.727905,259.367889 638.133972,260.704163 669.539612,262.047913 
	C684.817932,262.701599 700.096191,263.357361 715.373840,264.026215 
	C730.485657,264.687775 745.597656,265.344910 760.706543,266.067352 
	C762.520996,266.154083 764.316467,266.637482 766.532410,266.994080 
	C766.682495,269.097992 766.420898,271.144806 766.146667,273.575928 
z"/>
<path fill="#30353C" opacity="1.000000" stroke="none" 
	d="
M343.773865,525.327759 
	C368.468292,513.865051 393.393127,502.775391 418.275574,491.591492 
	C475.937836,465.674011 533.579102,439.709778 591.232422,413.772278 
	C592.866577,413.037079 594.540100,412.389313 596.783142,411.456238 
	C631.117249,483.388855 665.286377,554.975647 699.720520,626.790649 
	C700.030762,627.552673 700.075928,628.086487 700.082703,629.020386 
	C670.421997,620.810913 640.797058,612.210327 611.178040,603.589294 
	C576.609009,593.527283 542.048279,583.436646 507.478119,573.378296 
	C476.572906,564.386108 445.652008,555.447815 414.752899,546.434753 
	C391.151550,539.550476 367.573456,532.586487 343.773865,525.327759 
z"/>
</svg>