<?xml version="1.0" encoding="iso-8859-1"?>
<!-- Uploaded to: SVG Repo, www.svgrepo.com, Generator: SVG Repo Mixer Tools -->
<svg version="1.1" id="Layer_1" xmlns="http://www.w3.org/2000/svg" xmlns:xlink="http://www.w3.org/1999/xlink" 
	 viewBox="0 0 490 490" xml:space="preserve">
<g>
	<g id="XMLID_32_">
		<g>
			<polyline style="fill:#D1D3D4;" points="65,280 30,280 30,210 65,210 			"/>
			<polyline style="fill:#D1D3D4;" points="425,210 460,210 460,280 425,280 			"/>
			<polyline style="fill:#D1D3D4;" points="405,320 435,335 410,380 380,365 			"/>
			<path style="fill:#D1D3D4;" d="M410,115l25,45l-28.799,14.302c-3.203-5.703-6.397-11.304-9.6-16.802
				c-5.303-9.199-10.605-18.599-16.406-27.598L410,115z"/>
			<path style="fill:#D1D3D4;" d="M340,0v86.401c-0.801-0.601-1.699-1.104-2.5-1.602C310.996,69.399,277.803,70,245,70
				c-32.793,0-65.996-0.601-92.5,14.8c-0.898,0.498-1.699,1.001-2.5,1.602V30V0H340z"/>
			<path style="fill:#D1D3D4;" d="M340,460v30H150v-86.299c0.801,0.498,1.602,0.996,2.5,1.494C179.004,420.596,212.207,420,245,420
				c32.803,0,65.996,0.596,92.5-14.805c0.801-0.498,1.699-0.996,2.5-1.592V460z"/>
			<path style="fill:#9CD2CB;" d="M115,245c0-34.6,13.594-66.001,35.703-89.302C174.297,130.601,207.793,115,245,115
				c37.197,0,70.703,15.601,94.297,40.698C361.397,178.999,375,210.4,375,245s-13.496,65.996-35.703,89.297
				C315.703,359.404,282.197,375,245,375c-37.207,0-70.703-15.596-94.297-40.703C128.594,310.996,115,279.6,115,245z"/>
			<path style="fill:#808285;" d="M150,403.604c0.801,0.596,1.699,1.094,2.5,1.592"/>
			<path style="fill:#808285;" d="M423.701,210.4c-4.502-12.602-10.801-24.6-17.5-36.099c-3.203-5.703-6.397-11.304-9.6-16.802
				c-5.303-9.199-10.605-18.599-16.406-27.598C369.297,112.7,356.904,96.802,340,86.401c-0.801-0.601-1.699-1.104-2.5-1.602
				C310.996,69.399,277.803,70,245,70c-32.793,0-65.996-0.601-92.5,14.8c-0.898,0.498-1.699,1.001-2.5,1.602
				c-25.801,16.001-41.299,44.697-56.602,71.099c-9.6,16.699-20.4,34.102-27.1,52.9C62.5,221.401,60,232.9,60,245
				s2.5,23.604,6.299,34.6c6.699,18.799,17.5,36.201,27.1,52.9c15.303,26.397,30.801,55.098,56.602,71.104
				c0.801,0.596,1.699,1.094,2.5,1.592C179.004,420.596,212.207,420,245,420c32.803,0,65.996,0.596,92.5-14.805
				c0.801-0.498,1.699-0.996,2.5-1.592c15.703-9.707,27.598-24.102,37.998-39.902c0.098-0.098,0.098-0.205,0.205-0.303
				c6.602-10.098,12.5-20.596,18.398-30.898c2.5-4.297,5-8.603,7.5-12.998c7.402-12.705,14.6-25.898,19.6-39.902
				C427.5,268.604,430,257.1,430,245S427.5,221.401,423.701,210.4z M339.297,334.297C315.703,359.404,282.197,375,245,375
				c-37.207,0-70.703-15.596-94.297-40.703C128.594,310.996,115,279.6,115,245s13.594-66.001,35.703-89.302
				C174.297,130.601,207.793,115,245,115c37.197,0,70.703,15.601,94.297,40.698C361.397,178.999,375,210.4,375,245
				S361.504,310.996,339.297,334.297z"/>
			<path style="fill:#D1D3D4;" d="M150,490v-86.401c0.801,0.601,1.699,1.104,2.5,1.602c26.504,15.4,59.697,14.8,92.5,14.8
				c32.793,0,65.996,0.601,92.5-14.8c0.898-0.498,1.699-1.001,2.5-1.602V460v30H150z"/>
		</g>
		<g>
			<path style="fill:#231F20;" d="M245,105c-38.925,0-75.001,15.572-101.551,43.815C118.654,174.945,105,209.105,105,245
				c0,35.892,13.654,70.05,38.416,96.145C169.991,369.425,206.068,385,245,385s75.009-15.575,101.536-43.804
				C371.34,315.17,385,281.007,385,245c0-35.884-13.654-70.042-38.417-96.151C320.001,120.572,283.925,105,245,105z M364.579,255
				c-1.963,23.71-10.884,46.105-25.771,64.666l-16.737-16.737l-14.143,14.143l17.169,17.168
				c-19.471,17.68-43.812,28.216-70.098,30.35V340h-20v24.59c-26.274-2.133-50.608-12.663-70.095-30.352l17.166-17.167
				l-14.143-14.143l-16.726,16.726c-14.878-18.597-23.81-40.997-25.779-64.654H150v-20h-24.576
				c1.969-23.649,10.895-46.042,25.779-64.654l16.725,16.725l14.145-14.141l-17.169-17.172
				c19.473-17.679,43.814-28.214,70.097-30.348V150h20v-24.589c26.272,2.133,50.607,12.664,70.097,30.35l-17.169,17.169
				l14.145,14.141l16.724-16.728c14.878,18.603,23.811,41.004,25.78,64.657H340v20L364.579,255L364.579,255z"/>
			<path style="fill:#231F20;" d="M235,245.858l-37.071,37.071l14.143,14.143l40-40c1.875-1.876,2.929-4.419,2.929-7.071v-70h-20
				v65.857H235z"/>
			<path style="fill:#231F20;" d="M460,200h-29.586c-2.748-6.701-6.105-13.668-10.327-21.429l19.361-9.615
				c2.446-1.215,4.29-3.379,5.101-5.988c0.812-2.609,0.52-5.437-0.808-7.825l-25-45c-2.6-4.681-8.427-6.482-13.213-4.088
				L383.68,116.98c-8.341-12.284-19.212-25.788-33.68-35.944V0h-20v70.091c-25.23-10.085-54.042-10.094-77.877-10.094h-14.245
				c-23.835,0-52.647,0.009-77.878,10.095V40h140V20H160V0h-20v81.036c-23.569,16.562-38.263,42.012-52.496,66.678
				C86.583,149.31,65.493,185.637,59.593,200H30c-5.522,0-10,4.477-10,10v70c0,5.523,4.478,10,10,10h29.589
				c5.883,14.327,27.003,50.705,27.929,52.309c14.229,24.656,28.923,50.093,52.482,66.654V490h20v-70.097
				c25.243,10.091,54.078,10.1,77.932,10.1h14.139c23.852,0,52.687-0.009,77.93-10.1V450H190v20h140v20h20v-81.045
				c13.442-9.469,23.697-21.72,31.173-32.188l24.355,12.178c1.434,0.717,2.96,1.058,4.465,1.058c3.521,0,6.927-1.867,8.748-5.146
				l25-45c1.325-2.384,1.618-5.206,0.813-7.812c-0.807-2.605-2.642-4.769-5.082-5.989l-21.474-10.737
				c4.461-8.028,8.764-16.47,12.397-25.319H460c5.522,0,10-4.477,10-10v-70C470,204.477,465.522,200,460,200z M405.908,128.226
				l15.265,27.476l-10.936,5.431c-1.703-2.983-12.815-22.242-15.779-27.181L405.908,128.226z M40,220h13.092
				C51.034,228.585,50,236.853,50,245c0,8.141,1.032,16.4,3.094,25H40V220z M405.908,366.774l-13.715-6.857
				c3.896-6.398,14.904-25.575,15.854-27.213l13.14,6.57L405.908,366.774z M414.267,276.285
				c-4.802,13.432-11.875,26.288-18.806,38.183c-0.018,0.03-0.034,0.06-0.052,0.089c-2.516,4.423-19.717,34.378-25.369,43.053
				c-0.155,0.215-0.303,0.436-0.441,0.664c-11.739,17.82-22.492,29.18-34.856,36.823c-0.244,0.15-2.166,1.386-2.38,1.517
				c-21.43,12.401-47.911,13.388-80.292,13.388h-14.139c-32.439,0-58.958-0.991-80.407-13.454c-0.059-0.034-1.891-1.219-2.253-1.443
				c-22.107-13.714-36.506-38.665-50.432-62.794c-0.932-1.615-23.663-40.751-29.089-55.977C71.881,265.133,70,254.884,70,245
				c0-9.879,1.881-20.129,5.719-31.243c5.458-15.318,28.181-54.44,29.108-56.048c13.928-24.137,28.33-49.096,50.443-62.81
				c0.25-0.155,2.195-1.42,2.254-1.454c21.441-12.459,47.94-13.449,80.354-13.449h14.245c32.355,0,58.816,0.985,80.237,13.382
				c0.196,0.121,2.139,1.379,2.399,1.54c16.607,10.218,28.491,26.923,37.03,40.402c4.872,7.558,22.31,37.856,25.692,43.878
				c0.025,0.046,0.052,0.091,0.078,0.137c7.899,13.557,13.052,24.163,16.706,34.381C418.125,224.904,420,235.136,420,245
				C420,254.869,418.124,265.103,414.267,276.285z M450,270h-13.091c2.057-8.582,3.091-16.85,3.091-25
				c0-8.147-1.034-16.415-3.092-25H450V270z"/>
			<rect x="395" y="235" style="fill:#231F20;" width="15" height="20"/>
			<rect x="80" y="235" style="fill:#231F20;" width="15" height="20"/>
		</g>
	</g>
</g>
</svg>